<svg height="506pt" viewBox="0 0 506.75454 506" width="506pt" xmlns="http://www.w3.org/2000/svg"><path d="m306.269531 113.082031-65.929687-24.132812-74.4375-27.1875-37.21875-13.589844-68.980469-25.28125c-3.296875-1.171875-6.96875-.355469-9.464844 2.097656l-38.617187 38.617188c-1.957032 1.949219-2.90625 4.695312-2.574219 7.4375.335937 2.742187 1.917969 5.179687 4.289063 6.597656l207.0625 124.238281zm0 0" fill="#e8edfc"/><path d="m240.339844 88.949219 17.214844-17.214844c6.988281-7.027344 6.988281-18.378906 0-25.40625-7.046876-6.941406-18.359376-6.941406-25.40625 0l-29.027344 29.027344zm0 0" fill="#e8edfc"/><path d="m165.902344 61.761719 21.785156-21.785157c6.988281-7.027343 6.988281-18.378906 0-25.40625-7.042969-6.945312-18.359375-6.945312-25.40625 0l-33.597656 33.601563zm0 0" fill="#e8edfc"/><path d="m482.179688 456.917969-38.625 38.625c-1.96875 1.945312-4.714844 2.882812-7.460938 2.550781s-5.191406-1.898438-6.640625-4.257812l-4.042969-6.824219-120.183594-200.308594 69.164063-66.832031 19.671875-19.042969 24.164062 65.933594 13.5625 37.277343 13.5625 37.1875 13.652344 37.1875 25.242188 68.984376c1.167968 3.308593.367187 6.992187-2.066406 9.519531zm0 0" fill="#cad9fc"/><path d="m455.503906 456.917969-30.09375 30.09375-120.183594-200.308594 69.164063-66.832031 17.15625 46.890625 13.5625 37.277343 13.566406 37.1875 13.652344 37.1875 25.238281 68.984376c1.167969 3.308593.367188 6.992187-2.0625 9.519531zm0 0" fill="#e8edfc"/><path d="m431.777344 304.011719 29.023437-29.027344c6.945313-7.042969 6.945313-18.359375 0-25.40625-7.027343-6.984375-18.378906-6.984375-25.40625 0l-17.210937 17.214844zm0 0" fill="#e8edfc"/><path d="m458.960938 378.453125 33.601562-33.601563c6.945312-7.042968 6.945312-18.359374 0-25.40625-7.027344-6.984374-18.378906-6.984374-25.40625 0l-21.785156 21.785157zm0 0" fill="#e8edfc"/><path d="m140.308594 305.597656-87.972656-10.988281c-2.757813-.378906-5.535157.5625-7.496094 2.542969l-13.210938 13.210937c-2.085937 2.0625-3.027344 5.015625-2.519531 7.90625.503906 2.890625 2.398437 5.347657 5.0625 6.574219l75.265625 35.121094zm0 0" fill="#e8edfc"/><path d="m201.535156 366.824219 10.992188 87.972656c.378906 2.757813-.5625 5.535156-2.539063 7.496094l-13.214843 13.210937c-2.0625 2.085938-5.015626 3.027344-7.902344 2.519532-2.890625-.503907-5.347656-2.398438-6.578125-5.058594l-35.121094-75.269532zm0 0" fill="#e8edfc"/><path d="m365.496094 230.5625c-101.679688 101.679688-235.789063 195.996094-260.398438 171.472656-2.882812-3.316406-4.304687-7.65625-3.953125-12.035156.359375-41.859375 84.972657-157.910156 175.425781-248.363281 85.875-85.875 149.558594-121.265625 182.074219-115.335938 5.589844.847657 10.773438 3.421875 14.824219 7.367188 24.609375 24.519531-6.199219 95.121093-107.972656 196.894531zm0 0" fill="#cad9fc"/><path d="m345.199219 214.933594c-87.582031 87.578125-199.054688 169.585937-244.054688 175.066406.359375-41.859375 84.972657-157.910156 175.425781-248.363281 85.875-85.875 149.558594-121.265625 182.074219-115.335938 12.578125 29.910157-21.464843 96.5625-113.445312 188.632813zm0 0" fill="#e8edfc"/><path d="m116.804688 354.375-.03125.054688-57.332032-26.136719c-2.664062-1.230469-4.554687-3.6875-5.0625-6.578125-.507812-2.890625.4375-5.84375 2.523438-7.90625l13.210937-13.210938c.039063-.042968.101563-.050781.148438-.089844l-19.597657-2.453124c-2.761718-.378907-5.535156.5625-7.496093 2.539062l-13.214844 13.214844c-2.085937 2.058594-3.03125 5.015625-2.523437 7.90625.507812 2.890625 2.398437 5.347656 5.0625 6.578125l75.269531 35.121093.03125-.058593" fill="#fff"/><path d="m221.058594 201.195312c-28.597656 31.863282-54.902344 65.710938-78.71875 101.292969l-4.003906 3.109375-.03125.054688c21.207031-32.085938 54.902343-68.691406 86.257812-104.605469l-.660156.679687-196.953125-111.714843c-2.371094-1.421875-3.953125-3.855469-4.289063-6.601563-.335937-2.742187.613282-5.488281 2.574219-7.4375l48.796875-47.832031-14.328125-5.25c-3.296875-1.171875-6.96875-.355469-9.464844 2.097656l-38.617187 38.617188c-1.957032 1.949219-2.90625 4.695312-2.574219 7.4375.335937 2.742187 1.917969 5.179687 4.289063 6.597656l207.0625 124.238281zm0 0" fill="#fff"/><path d="m116.1875 414.511719c-6.402344.402343-12.691406-1.816407-17.421875-6.144531-35.90625-35.910157 93.976563-195.597657 171.496094-273.117188 99.429687-99.4375 177.800781-139.804688 209.601562-107.96875 31.8125 31.8125-8.554687 110.167969-107.980469 209.597656-68.414062 68.417969-200.855468 177.632813-255.695312 177.632813zm335.023438-379.988281c-29.160157 0-87.371094 32.554687-168.25 113.429687-113.675782 113.679687-186.191407 233.011719-171.492188 247.714844 14.679688 14.667969 134.035156-57.824219 247.710938-171.496094 100.363281-100.375 126.332031-165.84375 107.980468-184.195313-4.367187-3.886718-10.113281-5.855468-15.949218-5.453124zm0 0" fill="#428dff"/><path d="m302.015625 175.992188c-3.632813 0-6.910156-2.1875-8.300781-5.546876-1.386719-3.355468-.621094-7.21875 1.949218-9.789062 88.214844-88.21875 134.933594-104.292969 147.152344-107.117188 3.144532-.769531 6.460938.210938 8.675782 2.566407 2.21875 2.355469 3 5.722656 2.042968 8.816406-.957031 3.089844-3.503906 5.429687-6.664062 6.117187-7.859375 1.820313-51.480469 15.296876-138.503906 102.320313-1.683594 1.6875-3.96875 2.636719-6.351563 2.632813zm0 0" fill="#428dff"/><path d="m17.957031 69.9375 100.136719 60.082031 106.925781 64.15625-9.242187 15.402344-106.925782-64.152344-100.136718-60.082031zm0 0" fill="#fff"/><g fill="#428dff"><path d="m51.847656 100.75c2.539063-4.257812 1.160156-9.761719-3.078125-12.324219l-30.8125-18.488281-9.242187 15.40625 30.808594 18.488281c4.257812 2.535157 9.765624 1.160157 12.324218-3.082031zm0 0"/><path d="m215.777344 209.582031 9.242187-15.40625-114.632812-68.777343c-4.253907-2.554688-9.769531-1.175782-12.324219 3.078124-2.550781 4.253907-1.171875 9.773438 3.082031 12.324219zm0 0"/><path d="m79.578125 106.910156c-2.058594-1.191406-4.488281-1.566406-6.808594-1.046875l-1.617187.601563c-.550782.253906-1.0625.578125-1.527344.96875-.484375.304687-.917969.679687-1.289062 1.113281-.394532.457031-.753907.9375-1.078126 1.445313-1.195312 2.054687-1.570312 4.488281-1.050781 6.808593.679688 2.949219 2.816407 5.347657 5.671875 6.359375 2.851563 1.011719 6.023438.496094 8.40625-1.367187.953125-.6875 1.757813-1.558594 2.375-2.558594 1.25-2.035156 1.628906-4.488281 1.050782-6.808594-.582032-2.316406-2.070313-4.304687-4.132813-5.515625zm0 0"/><path d="m306.269531 122.070312c-1.054687 0-2.097656-.1875-3.089843-.550781l-246.570313-90.195312-38.632813 38.632812c2.847657 1.601563 4.597657 4.621094 4.574219 7.886719-.019531 3.269531-1.816406 6.265625-4.683593 7.828125-2.867188 1.5625-6.359376 1.445313-9.117188-.308594-4.753906-2.835937-7.933594-7.710937-8.613281-13.207031-.679688-5.496094 1.21875-11 5.140625-14.90625l38.609375-38.613281c4.9375-4.855469 12.199219-6.496094 18.746093-4.238281l246.726563 90.25c4.09375 1.496093 6.523437 5.714843 5.761719 10.007812-.757813 4.292969-4.492188 7.417969-8.851563 7.414062zm0 0"/><path d="m240.34375 97.929688c-3.632812 0-6.90625-2.1875-8.296875-5.546876-1.390625-3.355468-.621094-7.21875 1.945313-9.785156l17.210937-17.210937c3.5-3.511719 3.5-9.195313 0-12.707031-1.679687-1.609376-3.90625-2.527344-6.230469-2.574219-2.429687-.105469-4.785156.832031-6.476562 2.578125l-29.023438 29.023437c-3.523437 3.417969-9.136718 3.375-12.605468-.097656-3.46875-3.46875-3.511719-9.082031-.097657-12.605469l29.027344-29.027344c5.066406-5.097656 11.984375-7.925781 19.175781-7.835937 7.121094-.085937 13.964844 2.75 18.9375 7.847656 10.503906 10.527344 10.503906 27.574219-.003906 38.105469l-17.210938 17.207031c-1.683593 1.6875-3.96875 2.632813-6.351562 2.628907zm0 0"/><path d="m165.902344 70.746094c-3.632813 0-6.910156-2.1875-8.300782-5.546875-1.390624-3.355469-.621093-7.21875 1.949219-9.789063l21.785157-21.785156c3.5-3.511719 3.5-9.191406 0-12.703125-1.671876-1.617187-3.898438-2.539063-6.226563-2.574219-2.417969-.0625-4.757813.867188-6.476563 2.574219l-33.601562 33.601563c-3.523438 3.402343-9.125 3.355468-12.589844-.109376-3.464844-3.464843-3.515625-9.070312-.109375-12.59375l33.601563-33.601562c5.042968-5.136719 11.980468-7.972656 19.175781-7.835938 7.105469-.027343 13.921875 2.796876 18.929687 7.835938 10.507813 10.53125 10.507813 27.582031 0 38.109375l-21.785156 21.785156c-1.683594 1.6875-3.96875 2.636719-6.351562 2.632813zm0 0"/><path d="m437.203125 507.132812c-.761719 0-1.523437-.046874-2.28125-.140624-5.484375-.671876-10.34375-3.851563-13.152344-8.609376l-124.214843-207.023437c-1.65625-2.75-1.714844-6.175781-.15625-8.984375 1.554687-2.808594 4.492187-4.570312 7.703124-4.625 3.210938-.054688 6.207032 1.609375 7.855469 4.363281l124.238281 207.058594 38.597657-38.625-90.175781-246.59375c-1.15625-3.027344-.59375-6.441406 1.472656-8.9375s5.316406-3.6875 8.503906-3.113281c3.1875.570312 5.824219 2.816406 6.894531 5.875l90.183594 246.5625c2.34375 6.582031.71875 13.929687-4.1875 18.910156l-38.605469 38.609375c-3.351562 3.375-7.917968 5.273437-12.675781 5.273437zm0 0"/><path d="m431.773438 312.996094c-3.632813 0-6.90625-2.1875-8.296876-5.546875-1.390624-3.355469-.621093-7.21875 1.945313-9.785157l29.035156-29.027343c1.667969-1.644531 2.597657-3.894531 2.570313-6.238281.074218-2.417969-.855469-4.757813-2.570313-6.464844-3.511719-3.503906-9.199219-3.503906-12.710937.003906l-17.210938 17.203125c-3.519531 3.429687-9.144531 3.394531-12.621094-.082031-3.476562-3.476563-3.511718-9.101563-.078124-12.621094l17.210937-17.210938c10.53125-10.5 27.578125-10.503906 38.113281-.003906 10.441406 10.554688 10.445313 27.546875.007813 38.109375l-29.042969 29.03125c-1.683594 1.6875-3.96875 2.636719-6.351562 2.632813zm0 0"/><path d="m458.964844 387.433594c-3.628906 0-6.90625-2.1875-8.296875-5.542969-1.386719-3.359375-.621094-7.21875 1.949219-9.789063l33.59375-33.601562c1.671874-1.640625 2.601562-3.890625 2.578124-6.234375.070313-2.417969-.863281-4.757813-2.578124-6.464844-3.566407-3.367187-9.136719-3.367187-12.703126 0l-21.789062 21.785157c-3.519531 3.429687-9.144531 3.394531-12.621094-.082032-3.476562-3.476562-3.511718-9.101562-.082031-12.621094l21.792969-21.785156c10.671875-10.144531 27.425781-10.148437 38.105468-.003906 10.453126 10.550781 10.453126 27.558594 0 38.109375l-33.597656 33.601563c-1.679687 1.6875-3.96875 2.632812-6.351562 2.628906zm0 0"/><path d="m109.429688 368.953125c-1.308594 0-2.605469-.289063-3.792969-.84375l-75.265625-35.121094c-5.320313-2.46875-9.09375-7.382812-10.109375-13.15625-1.015625-5.777343.859375-11.683593 5.015625-15.816406l13.210937-13.210937c3.941407-3.972657 9.519531-5.859376 15.0625-5.089844l87.867188 10.976562c4.871093.671875 8.300781 5.132813 7.691406 10.015625-.609375 4.878907-5.03125 8.359375-9.917969 7.808594l-87.972656-10.992187-13.238281 13.191406 75.253906 35.109375c3.820313 1.78125 5.886719 5.976562 4.972656 10.089843-.914062 4.113282-4.5625 7.039063-8.777343 7.035157zm0 0"/><path d="m190.386719 487.136719c-1.054688 0-2.105469-.09375-3.144531-.277344-5.761719-1.03125-10.660157-4.816406-13.113282-10.132813l-35.105468-75.226562c-1.355469-2.910156-1.058594-6.324219.78125-8.953125 1.839843-2.628906 4.945312-4.078125 8.140624-3.800781 3.199219.28125 6.003907 2.242187 7.363282 5.152344l35.121094 75.269531 13.203124-13.222657-11.007812-88.003906c-.550781-4.886718 2.933594-9.304687 7.8125-9.917968 4.878906-.609376 9.34375 2.820312 10.011719 7.691406l10.988281 87.972656c.746094 5.511719-1.144531 11.054688-5.105469 14.957031l-13.210937 13.210938c-3.375 3.378906-7.957032 5.28125-12.734375 5.28125zm0 0"/><path d="m246.492188 181.832031c-1.523438 0-3.019532-.386719-4.351563-1.128906l-147.734375-82.0625c-2.886719-1.515625-4.726562-4.476563-4.804688-7.734375-.082031-3.257812 1.613282-6.304688 4.421876-7.960938 2.808593-1.652343 6.292968-1.65625 9.101562-.007812l147.738281 82.0625c3.578125 1.988281 5.359375 6.144531 4.332031 10.109375-1.03125 3.960937-4.605468 6.726563-8.699218 6.722656zm0 0"/><path d="m416.351562 417.351562c-3.265624.003907-6.273437-1.765624-7.859374-4.625l-82.0625-147.734374c-1.640626-2.8125-1.632813-6.292969.023437-9.09375 1.652344-2.804688 4.695313-4.496094 7.949219-4.417969s6.214844 1.910156 7.730468 4.792969l82.0625 147.738281c1.542969 2.78125 1.5 6.171875-.109374 8.914062-1.613282 2.742188-4.554688 4.425781-7.734376 4.429688zm0 0"/></g></svg>