<?xml version="1.0" encoding="utf-8"?>
<!-- Generator: Adobe Illustrator 19.2.1, SVG Export Plug-In . SVG Version: 6.00 Build 0)  -->
<svg xmlns="http://www.w3.org/2000/svg" xmlns:xlink="http://www.w3.org/1999/xlink" version="1.1" id="Layer" x="0px" y="0px" width="512" height="512" viewBox="0 0 64 64" enable-background="new 0 0 64 64" xml:space="preserve">
<path fill="#CCE4FF" d="M48,52l6-20h-4h-8l-2,6H26H14h-4l5.94,13.86l0.934,2.129C17.02,53.996,17.171,54,17.33,54  c3.67,0,3.67-2,7.33-2c3.67,0,3.67,2,7.34,2c3.66,0,3.66-2,7.33-2c3.67,0,3.67,2,7.34,2c0.238,0,0.462-0.009,0.672-0.025L48,52z"/>
<polygon fill="#CCE4FF" points="26,30 30,30 30,26 30,22 20,22 10,22 10,30 14,30 "/>
<path fill="#007AFF" d="M52,30V16H40v8h-8v-4H22v-4h4v-4h-4V8h-4v4h-4v4h4v4H8v12h4v4H6.967l6.243,14.563  C12.382,50.238,11.382,50,10,50H8v4h2c1.309,0,1.884,0.311,2.541,0.665l0.137,0.075C13.699,55.302,14.971,56,17.33,56  c2.346,0,3.612-0.69,4.628-1.245C22.792,54.3,23.341,54,24.66,54c1.325,0,1.877,0.301,2.713,0.756C28.39,55.311,29.655,56,32,56  c2.339,0,3.603-0.689,4.618-1.243C37.453,54.301,38.004,54,39.33,54c1.325,0,1.877,0.301,2.713,0.756  C43.06,55.311,44.325,56,46.67,56c0.921,0,1.741-0.107,2.491-0.324c0.899-0.253,1.554-0.608,2.131-0.923  C52.125,54.3,52.675,54,54,54h2v-4h-2c-1.582,0-2.665,0.315-3.518,0.688L56.688,30H52z M44,28v-4v-4h4v10h-4V28z M32,28h8v3.675  L38.559,36H28v-4h4V28z M12,24h6h4h6v4h-4h-8h-4V24z M24,32v4h-8v-4H24z M45.925,51.958c-0.822-0.096-1.31-0.355-1.968-0.714  C42.94,50.689,41.675,50,39.33,50c-2.346,0-3.612,0.69-4.628,1.245C33.869,51.7,33.319,52,32,52c-1.325,0-1.877-0.301-2.713-0.756  C28.27,50.689,27.005,50,24.66,50c-2.339,0-3.603,0.689-4.618,1.243c-0.636,0.348-1.11,0.604-1.885,0.707L13.033,40H16h8h4h13.441  l2-6H48h3.312L45.925,51.958z"/>
</svg>
